<?xml version="1.0" encoding="UTF-8"?>
<svg id="Layer_1" xmlns="http://www.w3.org/2000/svg" version="1.1" viewBox="0 0 378 125.8">
  <!-- Generator: Adobe Illustrator 30.0.0, SVG Export Plug-In . SVG Version: 2.1.1 Build 123)  -->
  <defs>
    <style>
      .st0 {
        font-family: Rajdhani-Bold, Rajdhani;
        font-size: 15px;
        font-weight: 700;
        letter-spacing: 0em;
      }

      .st0, .st1 {
        isolation: isolate;
      }

      .st0, .st2 {
        fill: #001871;
      }
    </style>
  </defs>
  <g>
    <path class="st2" d="M135.9,62h-3.5c-1.7,0-3-.4-3.9-1.3s-1.4-2.2-1.4-3.8v-10c0-1.7.5-2.9,1.4-3.8.9-.9,2.2-1.3,3.9-1.3h3.5c1.6,0,2.9.4,3.9,1.3.9.9,1.4,2.2,1.4,3.8v1.5c0,.5-.2.7-.7.7h-2.7c-.4,0-.7-.2-.7-.7v-1.3c0-.7-.1-1.2-.4-1.4-.3-.3-.8-.4-1.4-.4h-2.2c-.7,0-1.1,0-1.4.4s-.4.8-.4,1.4v9.7c0,.7.1,1.2.4,1.4.3.3.8.4,1.4.4h2.2c.7,0,1.2,0,1.4-.4.3-.3.4-.8.4-1.4v-1.3c0-.5.2-.7.7-.7h2.7c.5,0,.7.2.7.7v1.5c0,1.6-.5,2.9-1.4,3.8-.9.8-2.2,1.2-3.9,1.2Z"/>
    <path class="st2" d="M148,42.3v19.1c0,.4-.2.7-.7.7h-2.7c-.4,0-.7-.2-.7-.7v-19.1c0-.4.2-.7.7-.7h2.7c.5,0,.7.3.7.7Z"/>
    <path class="st2" d="M159.8,62h-4.2c-.4,0-.7-.2-.8-.7l-4.9-19c-.1-.5.1-.7.6-.7h3c.4,0,.7.2.8.7l3.3,15.6h.1l3.3-15.6c.1-.4.3-.7.8-.7h3c.5,0,.7.2.6.7l-4.9,19c0,.5-.3.7-.7.7h0Z"/>
    <path class="st2" d="M171.4,42.3v19.1c0,.4-.2.7-.7.7h-2.7c-.4,0-.7-.2-.7-.7v-19.1c0-.4.2-.7.7-.7h2.7c.5,0,.7.3.7.7Z"/>
    <path class="st2" d="M186,62h-10.4c-.4,0-.7-.2-.7-.7v-19c0-.4.2-.7.7-.7h2.7c.4,0,.7.2.7.7v15.8c0,.2.1.3.4.3h6.7c.4,0,.6.2.6.7v2.2c-.1.5-.3.7-.7.7Z"/>
    <path class="st2" d="M196.7,62h-3c-.4,0-.5-.2-.4-.7l5-19.1c.1-.4.5-.7,1-.7h4.2c.5,0,.8.2,1,.7l5,19.1c.1.4,0,.7-.4.7h-3.5c-.1,0-.1-.3-.2-.5l-.9-3.5h-6.2l-.9,3.5c0,.3-.1.4-.2.5h-.5ZM201.2,45.5l-2.3,9.2h4.7l-2.3-9.2h0Z"/>
    <path class="st2" d="M215.6,42.3v19.1c0,.4-.2.7-.7.7h-2.7c-.4,0-.7-.2-.7-.7v-19.1c0-.4.2-.7.7-.7h2.7c.5,0,.7.3.7.7Z"/>
    <path class="st2" d="M222.4,62h-2.7c-.4,0-.7-.2-.7-.7v-19c0-.4.2-.7.7-.7h7.5c1.6,0,2.9.5,3.9,1.4.9.9,1.4,2.2,1.4,3.8v2.5c0,2.4-.9,4-2.8,4.8h0l3.4,7.2c.2.5,0,.8-.5.8h-3.4c-.2,0-.3-.3-.4-.5l-3.2-6.8h-2.1c-.3,0-.4,0-.4.3v6.5c0,.3-.2.5-.7.5h0ZM223.4,51.3h3.1c.7,0,1.2,0,1.5-.4s.5-.7.5-1.4v-2.5c0-.7-.2-1.1-.5-1.4-.3-.3-.8-.4-1.5-.4h-3.1c-.2,0-.3,0-.3.3v5.5c0,.2.1.3.3.3Z"/>
    <path class="st2" d="M245.2,62h-2.7c-.4,0-.7-.2-.7-.7v-19c0-.4.2-.7.7-.7h7.7c1.6,0,2.9.4,3.8,1.3.9.9,1.4,2.2,1.4,3.8v3c0,1.6-.5,2.9-1.4,3.8s-2.2,1.3-3.8,1.3h-4c-.3,0-.4,0-.4.3v6c0,.7-.2.9-.6.9ZM246.2,51.5h3.4c.7,0,1.2,0,1.4-.4.3-.3.4-.8.4-1.4v-2.7c0-.7-.1-1.2-.4-1.4-.3-.3-.8-.4-1.4-.4h-3.4c-.2,0-.3,0-.3.3v5.7c-.1.2,0,.3.3.3Z"/>
    <path class="st2" d="M259.9,62h-3c-.4,0-.5-.2-.4-.7l5-19.1c.1-.4.5-.7,1-.7h4.2c.5,0,.8.2,1,.7l5,19.1c.1.4,0,.7-.4.7h-3.5c-.1,0-.1-.3-.2-.5l-.9-3.5h-6.2l-.9,3.5c0,.3-.1.4-.2.5s-.3,0-.5,0ZM264.5,45.5l-2.3,9.2h4.7l-2.3-9.2h-.1Z"/>
    <path class="st2" d="M281,62h-2.7c-.5,0-.7-.2-.7-.7v-15.8c0-.2-.1-.3-.3-.3h-3.6c-.4,0-.7-.2-.7-.7v-2.2c0-.4.2-.7.7-.7h12c.4,0,.7.2.7.7v2.2c0,.4-.2.7-.7.7h-3.6c-.3,0-.4,0-.4.3v15.9c0,.4-.3.6-.7.6h0Z"/>
    <path class="st2" d="M291.3,62h-2.7c-.4,0-.7-.2-.7-.7v-19c0-.4.2-.7.7-.7h7.5c1.6,0,2.9.5,3.9,1.4.9.9,1.4,2.2,1.4,3.8v2.5c0,2.4-.9,4-2.8,4.8h0l3.4,7.2c.2.5,0,.8-.5.8h-3.4c-.2,0-.3-.3-.4-.5l-3.2-6.8h-2.1c-.3,0-.4,0-.4.3v6.5c0,.3-.3.5-.7.5h0ZM292.3,51.3h3.1c.7,0,1.2,0,1.5-.4s.5-.7.5-1.4v-2.5c0-.7-.2-1.1-.5-1.4-.3-.3-.8-.4-1.5-.4h-3.1c-.2,0-.3,0-.3.3v5.5c-.1.2.1.3.3.3Z"/>
    <path class="st2" d="M312.9,62h-3.5c-1.7,0-3-.4-3.9-1.3s-1.4-2.2-1.4-3.8v-10c0-1.7.5-2.9,1.4-3.8.9-.9,2.2-1.3,3.9-1.3h3.6c1.7,0,3,.4,3.9,1.3.9.9,1.4,2.2,1.4,3.8v10c0,1.7-.5,2.9-1.4,3.8-1,.9-2.3,1.3-4,1.3ZM310,58.5h2.3c.7,0,1.2,0,1.4-.4.3-.3.4-.8.4-1.4v-9.7c0-.7-.1-1.2-.4-1.4s-.8-.4-1.4-.4h-2.3c-.7,0-1.2,0-1.4.4-.3.3-.4.8-.4,1.4v9.7c0,.7.1,1.2.4,1.4.3.3.7.4,1.4.4Z"/>
    <path class="st2" d="M332.3,62h-10.4c-.4,0-.7-.2-.7-.7v-19c0-.4.2-.7.7-.7h2.7c.4,0,.7.2.7.7v15.8c0,.2.1.3.4.3h6.7c.4,0,.6.2.6.7v2.2c-.1.5-.3.7-.7.7h0Z"/>
  </g>
  <path class="st2" d="M85.2,70.9l-4.8-7.9,22.4-26.8,7.3-3.7-32.1,60.9-32.1-60.9,7.3,3.7,22.4,26.8-4.8,7.9h14.4ZM100.2,54.6h12.8l-1.1-4.5-8.9-1-2.9,5.5h0ZM95.8,63h19.2l-1.6-6.9h-14l-3.6,6.9h0ZM91.9,70.3l20.3-5.9h-17.2l-3.1,5.9h0ZM52.9,49.1l-8.9.9-1.1,4.5h12.8l-2.8-5.5h0ZM56.6,56h-14l-1.6,6.9h19.2l-3.6-6.9h0ZM61,64.4h-17.2l20.3,5.9-3.1-5.9h0Z"/>
  <g class="st1">
   
  </g>
</svg>